Coordinates
version=1
nRows=8
nColumns=63
inDegrees=yes

Units are S.I. units (second, meters, Newtons, ...)
If the header above contains a line with 'inDegrees', this indicates whether rotational values are in degrees (yes) or radians (no).

endheader
time	pelvis_tilt	pelvis_list	pelvis_rotation	pelvis_tx	pelvis_ty	pelvis_tz	hip_flexion_r	hip_adduction_r	hip_rotation_r	knee_angle_r	knee_angle_r_beta	ankle_angle_r	subtalar_angle_r	mtp_angle_r	hip_flexion_l	hip_adduction_l	hip_rotation_l	knee_angle_l	knee_angle_l_beta	ankle_angle_l	subtalar_angle_l	mtp_angle_l	L5_S1_Flex_Ext	L5_S1_Lat_Bending	L5_S1_axial_rotation	L4_L5_Flex_Ext	L4_L5_Lat_Bending	L4_L5_axial_rotation	L3_L4_Flex_Ext	L3_L4_Lat_Bending	L3_L4_axial_rotation	L2_L3_Flex_Ext	L2_L3_Lat_Bending	L2_L3_axial_rotation	L1_L2_Flex_Ext	L1_L2_Lat_Bending	L1_L2_axial_rotation	L1_T12_Flex_Ext	L1_T12_Lat_Bending	L1_T12_axial_rotation	Abs_r3	Abs_r2	Abs_r1	Abs_t1	Abs_t2	neck_flexion	neck_bending	neck_rotation	arm_flex_r	arm_add_r	arm_rot_r	elbow_flex_r	pro_sup_r	wrist_flex_r	wrist_dev_r	arm_flex_l	arm_add_l	arm_rot_l	elbow_flex_l	pro_sup_l	wrist_flex_l	wrist_dev_l
4.216667	-1.800509	-4.251274	81.502053	0.197831	0.888045	0.646583	2.898665	-2.407071	-1.071450	6.921828	0.120809	29.773353	14.758134	0.000000	2.640747	2.173974	5.903655	7.883254	0.137589	24.114432	-11.216106	0.000000	-0.309637	0.006095	0.829275	-0.575026	0.008106	0.881105	-0.508702	0.014819	0.881105	-0.353884	0.014819	0.725616	-0.287529	0.012429	0.673786	-0.176926	0.009441	0.621956	-2.211703	0.068948	4.612178	0.000000	0.000000	21.300811	2.283781	5.534816	7.030332	-11.234689	116.177032	9.747325	5.228007	-5.282829	-16.258776	8.595039	-10.392000	117.568062	11.019728	9.072544	-4.497823	-10.691333
4.233333	-1.841306	-4.213883	81.501169	0.197793	0.888214	0.646620	2.855813	-2.459278	-0.981297	6.898852	0.120408	29.762988	14.694010	0.000000	2.638860	2.208532	5.863658	7.890754	0.137720	24.058556	-11.111081	0.000000	-0.314503	0.000071	0.826834	-0.584063	0.000095	0.878512	-0.516696	0.000173	0.878512	-0.359445	0.000173	0.723480	-0.292047	0.000145	0.671803	-0.179707	0.000110	0.620126	-2.246460	0.000807	4.598605	0.000000	0.000000	21.270250	2.203808	5.308418	7.032673	-11.262404	115.464117	9.857379	5.384565	-5.145196	-16.319979	8.577101	-10.354040	117.736321	10.872018	8.964830	-4.402533	-10.676258
4.250000	-1.898643	-4.186652	81.498474	0.197800	0.888357	0.646687	2.830571	-2.526176	-0.923729	6.882256	0.120118	29.771123	14.672485	0.000000	2.646370	2.261639	5.921403	7.881710	0.137562	23.963486	-11.152841	0.000000	-0.319244	-0.008708	0.824526	-0.592869	-0.011581	0.876059	-0.524487	-0.021172	0.876059	-0.364864	-0.021172	0.721460	-0.296450	-0.017756	0.669928	-0.182416	-0.013488	0.618395	-2.280331	-0.098502	4.585767	0.000000	0.000000	21.277427	2.128553	5.051782	7.053170	-11.265898	114.930543	9.930775	5.437206	-4.941528	-16.357789	8.580024	-10.336414	118.002367	10.746315	8.798846	-4.327091	-10.669949
4.266667	-1.965738	-4.167350	81.488431	0.197839	0.888477	0.646783	2.820465	-2.602035	-0.895018	6.871465	0.119930	29.798181	14.702879	0.000000	2.666417	2.321918	5.970131	7.871749	0.137388	23.872709	-11.198154	0.000000	-0.324409	-0.018990	0.823947	-0.602461	-0.025256	0.875443	-0.532972	-0.046171	0.875443	-0.370767	-0.046171	0.720953	-0.301247	-0.038724	0.669457	-0.185368	-0.029415	0.617960	-2.317224	-0.214815	4.582545	0.000000	0.000000	21.321214	2.055334	4.781796	7.082381	-11.259989	114.416308	9.994238	5.521531	-4.740635	-16.375043	8.604942	-10.332706	118.357040	10.644423	8.524240	-4.256152	-10.680153
4.283333	-2.034215	-4.163272	81.498805	0.197850	0.888563	0.646892	2.826540	-2.679922	-0.935409	6.864786	0.119813	29.839712	14.792769	0.000000	2.700245	2.391449	6.184381	7.850581	0.137018	23.721620	-11.464201	0.000000	-0.329014	-0.029174	0.820115	-0.611012	-0.038802	0.871372	-0.540537	-0.070934	0.871372	-0.376030	-0.070934	0.717600	-0.305522	-0.059492	0.666343	-0.187999	-0.045191	0.615086	-2.350114	-0.330023	4.561233	0.000000	0.000000	21.400018	1.976773	4.520448	7.126089	-11.231650	114.215249	10.001337	5.437006	-4.529650	-16.372568	8.648210	-10.346289	118.708778	10.587260	8.218953	-4.199075	-10.694482
4.300000	-2.107475	-4.166639	81.481315	0.197924	0.888618	0.647031	2.845018	-2.754822	-0.922915	6.853255	0.119612	29.876911	14.839603	0.000000	2.748589	2.453569	6.220723	7.841695	0.136863	23.648715	-11.513466	0.000000	-0.334316	-0.039937	0.821863	-0.620858	-0.053116	0.873229	-0.549248	-0.097103	0.873229	-0.382090	-0.097103	0.719130	-0.310446	-0.081439	0.667764	-0.191028	-0.061862	0.616397	-2.387986	-0.451774	4.570955	0.000000	0.000000	21.516217	1.898642	4.265766	7.166463	-11.207085	113.900277	10.027794	5.490223	-4.391253	-16.374593	8.692532	-10.413020	118.690625	10.634860	8.175836	-4.204360	-10.716323
4.316667	-2.174416	-4.176238	81.462550	0.198006	0.888656	0.647159	2.867875	-2.822144	-0.957539	6.839050	0.119364	29.913450	14.933927	0.000000	2.794092	2.511384	6.315905	7.818854	0.136465	23.563694	-11.643304	0.000000	-0.339735	-0.049629	0.824971	-0.630923	-0.066007	0.876531	-0.558151	-0.120669	0.876531	-0.388284	-0.120669	0.721849	-0.315478	-0.101204	0.670289	-0.194125	-0.076876	0.618728	-2.426696	-0.561418	4.588239	0.000000	0.000000	21.654612	1.829187	4.048478	7.202785	-11.174115	113.726495	10.026773	5.502995	-4.299651	-16.378330	8.742362	-10.490254	118.641195	10.711036	8.113666	-4.216190	-10.759578
4.333333	-2.241452	-4.208227	81.453920	0.198068	0.888644	0.647291	2.919360	-2.886590	-1.022837	6.836245	0.119315	29.957347	15.040507	0.000000	2.857477	2.571230	6.483916	7.784729	0.135869	23.468994	-11.863010	0.000000	-0.342175	-0.058768	0.822555	-0.635454	-0.078162	0.873965	-0.562160	-0.142889	0.873965	-0.391072	-0.142889	0.719736	-0.317744	-0.119840	0.668326	-0.195519	-0.091032	0.616916	-2.444123	-0.664800	4.574805	0.000000	0.000000	21.815677	1.755257	3.862657	7.252292	-11.134580	113.748599	10.017703	5.473105	-4.249929	-16.364985	8.781864	-10.601606	118.369777	10.857285	8.154662	-4.245795	-10.804240
